HIERARCHY
ROOT root
{
	OFFSET	0	13.1	24.9
	CHANNELS 6  Xposition Yposition Zposition Xrotation Yrotation Zrotation
	JOINT spine_1
	{
		OFFSET	0	9.99999	0
		CHANNELS 3  Xrotation Yrotation Zrotation
		JOINT spine_2
		{
			OFFSET	0	112	-10
			CHANNELS 3  Xrotation Yrotation Zrotation
			JOINT spine_3
			{
				OFFSET	0	206.5	19.3
				CHANNELS 3  Xrotation Yrotation Zrotation
				JOINT spine_4
				{
					OFFSET	0	110.4	14.6
					CHANNELS 3  Xrotation Yrotation Zrotation
					JOINT neck_1
					{
						OFFSET	0	71.8	-50.3
						CHANNELS 3  Xrotation Yrotation Zrotation
						JOINT neck_2
						{
							OFFSET	0	86.2	-25.8
							CHANNELS 3  Xrotation Yrotation Zrotation
							JOINT head_ee
							{
								OFFSET	0	179.8	-8.7
								CHANNELS 3  Xrotation Yrotation Zrotation
								End Site
								{
									OFFSET	1	0	0
								}
							}
						}
					}
					JOINT left_clavicle
					{
						OFFSET	-43.2	22.4	-70.8
						CHANNELS 3  Xrotation Yrotation Zrotation
						JOINT left_shoulder
						{
							OFFSET	-93.9	-5.79999	48.7
							CHANNELS 3  Xrotation Yrotation Zrotation
							JOINT left_elbow
							{
								OFFSET	-291.4	-30.8	15.2
								CHANNELS 3  Xrotation Yrotation Zrotation
								JOINT left_lowarm_twist
								{
									OFFSET	-110.7	-3.89999	13.6
									CHANNELS 3  Xrotation Yrotation Zrotation
									JOINT left_hand
									{
										OFFSET	-110.7	-3.89999	13.6
										CHANNELS 3  Xrotation Yrotation Zrotation
										JOINT left_ee
										{
											OFFSET	-80.8	-5.10001	12.1
											CHANNELS 3  Xrotation Yrotation Zrotation
											End Site
											{
												OFFSET	1	0	0
											}
										}
									}
								}
							}
						}
					}
					JOINT right_clavicle
					{
						OFFSET	43.2	22.4	-70.8
						CHANNELS 3  Xrotation Yrotation Zrotation
						JOINT right_shoulder
						{
							OFFSET	93.9	-5.79999	48.7
							CHANNELS 3  Xrotation Yrotation Zrotation
							JOINT right_elbow
							{
								OFFSET	291.4	-30.8	15.2
								CHANNELS 3  Xrotation Yrotation Zrotation
								JOINT right_lowarm_twist
								{
									OFFSET	110.7	-3.89999	13.6
									CHANNELS 3  Xrotation Yrotation Zrotation
									JOINT right_hand
									{
										OFFSET	110.7	-3.89999	13.6
										CHANNELS 3  Xrotation Yrotation Zrotation
										JOINT right_ee
										{
											OFFSET	80.8	-5.10001	12.1
											CHANNELS 3  Xrotation Yrotation Zrotation
											End Site
											{
												OFFSET	1	0	0
											}
										}
									}
								}
							}
						}
					}
				}
			}
		}
	}
	JOINT left_hip
	{
		OFFSET	-82.8	-127.5	0.300001
		CHANNELS 3  Xrotation Yrotation Zrotation
		JOINT left_knee
		{
			OFFSET	-28.2	-396.7	2.2
			CHANNELS 3  Xrotation Yrotation Zrotation
			JOINT left_ankle
			{
				OFFSET	-11.7	-411.3	35.4
				CHANNELS 3  Xrotation Yrotation Zrotation
				JOINT left_toes
				{
					OFFSET	0	-60	-88.6
					CHANNELS 3  Xrotation Yrotation Zrotation
					JOINT left_foot_ee
					{
						OFFSET	-22.5	-16.5	-42.2
						CHANNELS 3  Xrotation Yrotation Zrotation
						End Site
						{
							OFFSET	1	0	0
						}
					}
				}
			}
		}
	}
	JOINT right_hip
	{
		OFFSET	82.8	-127.5	0.300001
		CHANNELS 3  Xrotation Yrotation Zrotation
		JOINT right_knee
		{
			OFFSET	28.2	-396.7	2.2
			CHANNELS 3  Xrotation Yrotation Zrotation
			JOINT right_ankle
			{
				OFFSET	11.7	-411.3	35.4
				CHANNELS 3  Xrotation Yrotation Zrotation
				JOINT right_toes
				{
					OFFSET	0	-60	-88.6
					CHANNELS 3  Xrotation Yrotation Zrotation
					JOINT right_foot_ee
					{
						OFFSET	22.5	-16.5	-42.2
						CHANNELS 3  Xrotation Yrotation Zrotation
						End Site
						{
							OFFSET	1	0	0
						}
					}
				}
			}
		}
	}
}
MOTION
Frames: 8
Frame Time: 0.02
3177.02 653.055 -1669.29 6.5455621579 67.5744826548 -10.6943435829 -2.00692 0.971533 1.94544 -2.00521 0.845796 2.00329 -1.97264 0.332443 2.1489 -1.97846 0.667577 2.06948 -12.8177 7.65598 4.11755 -12.8594 11.9671 6.19377 -0.0 0.0 -0.0 2.22004 23.9584 5.77901 -24.3871 -9.15936 71.6924 0.215564 -6.09534 0.0114772 -43.8351 -3.36795 4.3223 0.813116 1.81177 6.17614 -0.0 0.0 -0.0 13.7904 27.3397 -27.3423 15.7205 18.9305 -55.602 2.23973 47.9649 -0.99647 70.5818 2.80096 7.99237 2.24962 -19.9737 -22.035 0.0 0.0 0.0 26.5422 2.01269 -4.47193 -2.84071 0.106494 0.422906 -5.13349 7.76461 0.759497 -20.7129 0.0 0.0 -0.0 0.0 -0.0 -10.7032 -18.1654 17.7321 -19.3551 -0.302755 -2.94066 39.5951 18.7467 5.26512 12.7001 -0.0 -0.0 0.0 0.0 0.0 
3129.38377482 658.617 -1660.97080829 3.79836078186 67.8749469333 -7.74201656324 -1.79708 0.82412 1.67182 -1.79581 0.716084 1.72086 -1.7722 0.281782 1.84244 -1.77648 0.56918 1.77486 -11.5414 11.9891 4.0979 -11.6983 20.0595 7.27392 -0.0 0.0 -0.0 3.10491 23.7237 6.98177 -24.3148 -9.46287 70.5738 0.359437 -10.0962 0.0317508 -42.8204 -3.25598 4.25578 1.62373 -0.895691 10.5517 -0.0 0.0 -0.0 13.9593 27.3448 -27.7349 13.0417 21.7015 -55.3801 2.0365 45.2464 -0.848754 68.9095 2.62801 7.86538 1.49804 -20.49 -17.3936 0.0 0.0 0.0 28.3454 1.88152 -4.09928 -9.49487 0.272969 1.42993 -0.613015 11.2757 0.089949 -20.9293 0.0 0.0 -0.0 0.0 -0.0 -11.3423 -22.2797 19.0106 -13.4381 -0.316092 -2.03332 37.2726 16.8405 4.97796 13.3401 -0.0 -0.0 0.0 0.0 0.0 
3076.68020268 662.929 -1657.82164465 4.2704469877 68.4328297332 -7.77692278008 -1.77546 0.424092 1.60779 -1.77408 0.320939 1.63151 -1.7633 -0.0802531 1.66083 -1.76711 0.183014 1.65267 -8.83563 16.5766 4.18624 -8.96998 28.2356 8.02284 -0.0 0.0 -0.0 3.17005 21.6635 7.03405 -20.9911 -10.7643 70.3094 0.508331 -14.1341 0.0630195 -41.677 -3.13125 4.17848 2.13666 -2.53787 13.4016 -0.0 0.0 -0.0 13.0566 26.2636 -25.7765 8.53317 22.5621 -57.1016 2.09474 46.0536 -0.890404 67.0927 2.4444 7.72178 1.51103 -21.9288 -17.9078 0.0 0.0 0.0 26.954 2.64301 -3.65676 -17.6117 0.316422 2.67353 7.39257 13.848 -1.06535 -19.6301 0.0 0.0 -0.0 0.0 -0.0 -11.0994 -24.5079 21.0707 -16.0767 -0.321723 -2.43808 34.0424 12.3241 4.52461 14.3777 -0.0 -0.0 0.0 0.0 0.0 
3076.77792871 662.929 -1656.99669925 4.36126331494 68.902778598 -7.87441803704 -1.77546 0.424092 1.60779 -1.77408 0.320939 1.63151 -1.7633 -0.0802531 1.66083 -1.76711 0.183014 1.65267 -8.83563 16.5766 4.18624 -8.96998 28.2356 8.02284 -0.0 0.0 -0.0 3.17005 21.6635 7.03405 -20.9911 -10.7643 70.3094 0.508331 -14.1341 0.0630195 -41.677 -3.13125 4.17848 2.13666 -2.53787 13.4016 -0.0 0.0 -0.0 13.0566 26.2636 -25.7765 8.53317 22.5621 -57.1016 2.09474 46.0536 -0.890404 67.0927 2.4444 7.72178 1.51103 -21.9288 -17.9078 0.0 0.0 0.0 26.954 2.64301 -3.65676 -17.6117 0.316422 2.67353 7.39257 13.848 -1.06535 -19.6301 0.0 0.0 -0.0 0.0 -0.0 -11.0994 -24.5079 21.0707 -16.0767 -0.321723 -2.43808 34.0424 12.3241 4.52461 14.3777 -0.0 -0.0 0.0 0.0 0.0 
3028.01686366 668.99 -1657.85973054 7.51252000019 68.8105416022 -10.8769103821 -1.82529 0.352274 1.95071 -1.8232 0.227456 1.96916 -1.81315 -0.253879 1.96593 -1.81854 0.0597259 1.98135 -7.23673 17.1514 3.12682 -7.25379 29.7465 6.71332 -0.0 0.0 -0.0 3.3865 22.5647 7.35649 -21.6517 -11.4576 68.1044 0.592239 -16.3507 0.0850835 -44.7764 -3.47285 4.38222 2.19253 -0.892055 14.4575 -0.0 0.0 -0.0 13.3686 26.3471 -26.4889 5.96416 23.019 -58.266 1.7379 40.7218 -0.645012 65.6302 2.29999 7.60203 1.58761 -22.6031 -18.5788 0.0 0.0 0.0 23.6496 3.76057 -2.4677 -21.8155 0.26965 3.31672 18.8793 12.4042 -2.60143 -19.4385 0.0 0.0 -0.0 0.0 -0.0 -11.1656 -21.0844 22.4694 -24.5896 -0.212999 -3.73859 26.5783 4.58146 3.5778 15.854 -0.0 -0.0 0.0 0.0 0.0 
3004.9656688 674.941 -1647.60571042 8.50119215891 68.3846891346 -12.0376352866 -1.98172 0.227344 1.95683 -1.9796 0.10239 1.96732 -1.97393 -0.380311 1.93294 -1.97914 -0.0703284 1.96873 -9.26141 17.0178 4.02122 -9.45553 29.2643 8.08923 -0.0 0.0 -0.0 4.64965 22.9089 9.13706 -19.2846 -11.5372 66.5778 0.579522 -16.0178 0.0815389 -45.4405 -3.54744 4.42345 2.06026 1.14558 14.3561 -0.0 0.0 -0.0 13.2283 26.4176 -26.1552 4.33413 22.1092 -58.1309 1.59023 38.2265 -0.551108 64.3318 2.17439 7.49268 1.67173 -23.4804 -19.3467 0.0 0.0 0.0 22.2783 4.89083 -0.848363 -22.7771 0.252329 3.46325 21.4768 12.6455 -2.92629 -21.2 0.0 0.0 -0.0 0.0 -0.0 -10.743 -16.4716 22.9284 -27.1729 -0.141927 -4.12864 23.2472 -2.19203 3.13519 16.8109 -0.0 -0.0 0.0 0.0 0.0 
3005.06311677 674.941 -1646.84603403 8.59673705586 68.634928565 -12.1403184556 -1.98172 0.227344 1.95683 -1.9796 0.10239 1.96732 -1.97393 -0.380311 1.93294 -1.97914 -0.0703284 1.96873 -9.26141 17.0178 4.02122 -9.45553 29.2643 8.08923 -0.0 0.0 -0.0 4.64965 22.9089 9.13706 -19.2846 -11.5372 66.5778 0.579522 -16.0178 0.0815389 -45.4405 -3.54744 4.42345 2.06026 1.14558 14.3561 -0.0 0.0 -0.0 13.2283 26.4176 -26.1552 4.33413 22.1092 -58.1309 1.59023 38.2265 -0.551108 64.3318 2.17439 7.49268 1.67173 -23.4804 -19.3467 0.0 0.0 0.0 22.2783 4.89083 -0.848363 -22.7771 0.252329 3.46325 21.4768 12.6455 -2.92629 -21.2 0.0 0.0 -0.0 0.0 -0.0 -10.743 -16.4716 22.9284 -27.1729 -0.141927 -4.12864 23.2472 -2.19203 3.13519 16.8109 -0.0 -0.0 0.0 0.0 0.0 
3005.00925722 674.941 -1647.26261552 8.54405401386 68.4976957299 -12.0837212529 -1.98172 0.227344 1.95683 -1.9796 0.10239 1.96732 -1.97393 -0.380311 1.93294 -1.97914 -0.0703284 1.96873 -9.26141 17.0178 4.02122 -9.45553 29.2643 8.08923 -0.0 0.0 -0.0 4.64965 22.9089 9.13706 -19.2846 -11.5372 66.5778 0.579522 -16.0178 0.0815389 -45.4405 -3.54744 4.42345 2.06026 1.14558 14.3561 -0.0 0.0 -0.0 13.2283 26.4176 -26.1552 4.33413 22.1092 -58.1309 1.59023 38.2265 -0.551108 64.3318 2.17439 7.49268 1.67173 -23.4804 -19.3467 0.0 0.0 0.0 22.2783 4.89083 -0.848363 -22.7771 0.252329 3.46325 21.4768 12.6455 -2.92629 -21.2 0.0 0.0 -0.0 0.0 -0.0 -10.743 -16.4716 22.9284 -27.1729 -0.141927 -4.12864 23.2472 -2.19203 3.13519 16.8109 -0.0 -0.0 0.0 0.0 0.0 
